<?xml version="1.0" standalone="no"?>
<!DOCTYPE svg PUBLIC "-//W3C//DTD SVG 20010904//EN"
 "http://www.w3.org/TR/2001/REC-SVG-20010904/DTD/svg10.dtd">
<svg version="1.0" xmlns="http://www.w3.org/2000/svg"
 width="256.000000pt" height="256.000000pt" viewBox="0 0 256.000000 256.000000"
 preserveAspectRatio="xMidYMid meet">
<metadata>
Created by potrace 1.11, written by Peter Selinger 2001-2013
</metadata>
<g transform="translate(0.000000,256.000000) scale(0.100000,-0.100000)"
fill="#000000" stroke="none">
<path d="M1150 2555 c-8 -2 -49 -9 -90 -16 -41 -7 -77 -13 -80 -14 -16 -4 -97
-26 -105 -29 -5 -2 -14 -5 -20 -6 -5 -1 -28 -11 -50 -23 -22 -11 -42 -20 -45
-20 -10 0 -75 -32 -78 -39 -2 -5 -9 -8 -16 -8 -7 0 -45 -22 -85 -50 -40 -27
-74 -50 -76 -50 -6 0 -70 -57 -130 -117 -164 -163 -297 -404 -344 -623 -5 -25
-13 -58 -17 -75 -3 -16 -7 -100 -9 -187 -2 -117 2 -176 15 -237 9 -45 15 -81
13 -81 -2 0 1 -8 6 -19 6 -10 13 -33 16 -51 3 -18 9 -38 13 -44 3 -6 7 -16 8
-23 1 -6 22 -54 46 -105 147 -309 382 -527 713 -659 131 -52 262 -74 445 -73
153 0 224 8 325 36 22 7 42 12 45 13 67 14 307 128 349 165 9 8 32 26 51 40
143 101 285 271 372 445 37 72 94 226 103 273 2 15 10 52 16 82 15 71 20 318
8 395 -12 75 -44 205 -66 265 -25 66 -102 218 -137 268 -17 24 -35 51 -41 59
-41 63 -170 191 -260 258 -22 16 -42 32 -45 35 -20 21 -191 107 -268 136 -62
24 -186 58 -252 69 -38 7 -306 15 -330 10z"/>
</g>
</svg>
